<svg version="1.1" viewBox="30 60 1390 1210" xmlns="http://www.w3.org/2000/svg" xmlns:xlink="http://www.w3.org/1999/xlink" font-family="arial,arial" font-size="12" overflow="hidden"><defs><marker refX="9" refY="5" markerWidth="9" markerHeight="9" markerUnits="strokeWidth" viewBox="0 0 10 10" id="arrow" overflow="hidden"><path d=" M 0 0 L 10 5 L 0 10 Z" fill="#222222"/></marker><linearGradient x1="0" y1="0" x2="0" y2="1" id="scr"><stop offset="0" stop-color="#FFFFFF"/><stop offset="1" stop-color="#EEF4F9"/></linearGradient><linearGradient x1="0" y1="0" x2="0" y2="1" id="dec"><stop offset="0" stop-color="#FFF8E1"/><stop offset="1" stop-color="#FFE9A8"/></linearGradient><linearGradient x1="0" y1="0" x2="0" y2="1" id="role"><stop offset="0" stop-color="#E8F0E6"/><stop offset="1" stop-color="#D2E2CC"/></linearGradient></defs><circle cx="750" cy="90" r="9" fill="#222222"/><line x1="750" y1="99" x2="750" y2="118" stroke="#222222" stroke-width="1.5" marker-end="url(#arrow)"/><g><rect x="635" y="120" rx="22" ry="22" width="230" height="44" stroke="#222222" stroke-width="1.4" fill="url(#scr)"/><text font-size="13" text-anchor="middle" x="750" y="147">Открытие веб-приложения</text></g><line x1="750" y1="164" x2="750" y2="184" stroke="#222222" stroke-width="1.5" marker-end="url(#arrow)"/><g><rect x="635" y="186" rx="22" ry="22" width="230" height="44" stroke="#222222" stroke-width="1.4" fill="url(#scr)"/><text font-size="13" text-anchor="middle" x="750" y="213">Страница авторизации</text></g><line x1="750" y1="230" x2="750" y2="250" stroke="#222222" stroke-width="1.5" marker-end="url(#arrow)"/><g><rect x="635" y="252" rx="22" ry="22" width="230" height="44" stroke="#222222" stroke-width="1.4" fill="url(#scr)"/><text font-size="13" text-anchor="middle" x="750" y="279">Ввод логина и пароля</text></g><line x1="750" y1="296" x2="750" y2="316" stroke="#222222" stroke-width="1.5" marker-end="url(#arrow)"/><g><path d=" M 750 318 L 850 378 L 750 438 L 650 378 Z" stroke="#222222" stroke-width="1.4" fill="url(#dec)"/><text font-size="11" text-anchor="middle" x="750" y="372">Проверка</text><text font-size="11" text-anchor="middle" x="750" y="388">учётных данных</text></g><path d=" M 650 378 C 530 378 470 321.333 470 208 L 635 208" stroke="#222222" stroke-width="1.5" fill="none" marker-end="url(#arrow)"/><text font-style="italic" font-size="11" x="480" y="295">[неуспешно]</text><line x1="750" y1="438" x2="750" y2="465" stroke="#222222" stroke-width="1.5" marker-end="url(#arrow)"/><text font-style="italic" font-size="11" x="757" y="455">[успешно]</text><g><path d=" M 750 468 L 870 528 L 750 588 L 630 528 Z" stroke="#222222" stroke-width="1.4" fill="url(#dec)"/><text font-size="11" text-anchor="middle" x="750" y="522">Определение</text><text font-size="11" text-anchor="middle" x="750" y="538">роли пользователя</text></g><path d=" M 630 528 L 160 640" stroke="#222222" stroke-width="1.5" fill="none" marker-end="url(#arrow)"/><text font-style="italic" font-size="11" x="280" y="565">[разработчик]</text><path d=" M 720 588 L 540 640" stroke="#222222" stroke-width="1.5" fill="none" marker-end="url(#arrow)"/><text font-style="italic" font-size="11" x="555" y="612">[тимлид]</text><path d=" M 780 588 L 920 640" stroke="#222222" stroke-width="1.5" fill="none" marker-end="url(#arrow)"/><text font-style="italic" font-size="11" x="845" y="615">[руководитель отдела]</text><path d=" M 870 528 L 1300 640" stroke="#222222" stroke-width="1.5" fill="none" marker-end="url(#arrow)"/><text font-style="italic" font-size="11" x="1115" y="565">[администратор]</text><g><rect x="40" y="615" width="240" height="36" stroke="#222222" stroke-width="1.4" fill="url(#role)"/><text font-weight="700" font-size="13" text-anchor="middle" x="160" y="640">Разработчик</text><rect x="50" y="668" rx="22" ry="22" width="220" height="44" stroke="#222222" fill="url(#scr)"/><text font-size="12" text-anchor="middle" x="160" y="694">Индивидуальный дашборд</text></g><line x1="160" y1="712" x2="160" y2="730" stroke="#222222" stroke-width="1.5" marker-end="url(#arrow)"/><g><rect x="50" y="732" rx="22" ry="22" width="220" height="44" stroke="#222222" fill="url(#scr)"/><text font-size="12" text-anchor="middle" x="160" y="758">Выбор отчётного периода</text></g><line x1="160" y1="776" x2="160" y2="794" stroke="#222222" stroke-width="1.5" marker-end="url(#arrow)"/><g><rect x="50" y="796" rx="22" ry="22" width="220" height="50" stroke="#222222" fill="url(#scr)"/><text font-size="11" text-anchor="middle" x="160" y="817">Просмотр индивидуальных</text><text font-size="11" text-anchor="middle" x="160" y="833">метрик (парная визуализация)</text></g><line x1="160" y1="846" x2="160" y2="864" stroke="#222222" stroke-width="1.5" marker-end="url(#arrow)"/><g><rect x="50" y="866" rx="22" ry="22" width="220" height="44" stroke="#222222" fill="url(#scr)"/><text font-size="12" text-anchor="middle" x="160" y="892">История показателей</text></g><line x1="160" y1="910" x2="160" y2="928" stroke="#222222" stroke-width="1.5" marker-end="url(#arrow)"/><g><rect x="50" y="930" rx="22" ry="22" width="220" height="50" stroke="#222222" fill="url(#scr)"/><text font-size="11" text-anchor="middle" x="160" y="951">Раскрытие формулы расчёта</text><text font-size="11" text-anchor="middle" x="160" y="967">и источников данных</text></g><line x1="160" y1="980" x2="160" y2="998" stroke="#222222" stroke-width="1.5" marker-end="url(#arrow)"/><g><rect x="50" y="1000" rx="22" ry="22" width="220" height="44" stroke="#222222" fill="url(#scr)"/><text font-size="12" text-anchor="middle" x="160" y="1026">Экспорт отчёта в CSV</text></g><g><rect x="420" y="615" width="240" height="36" stroke="#222222" stroke-width="1.4" fill="url(#role)"/><text font-weight="700" font-size="13" text-anchor="middle" x="540" y="640">Тимлид команды</text><rect x="430" y="668" rx="22" ry="22" width="220" height="44" stroke="#222222" fill="url(#scr)"/><text font-size="12" text-anchor="middle" x="540" y="694">Список курируемых команд</text></g><line x1="540" y1="712" x2="540" y2="730" stroke="#222222" stroke-width="1.5" marker-end="url(#arrow)"/><g><rect x="430" y="732" rx="22" ry="22" width="220" height="44" stroke="#222222" fill="url(#scr)"/><text font-size="12" text-anchor="middle" x="540" y="758">Выбор команды и периода</text></g><line x1="540" y1="776" x2="540" y2="794" stroke="#222222" stroke-width="1.5" marker-end="url(#arrow)"/><g><rect x="430" y="796" rx="22" ry="22" width="220" height="50" stroke="#222222" fill="url(#scr)"/><text font-size="11" text-anchor="middle" x="540" y="817">Командный дашборд</text><text font-size="11" text-anchor="middle" x="540" y="833">(парная визуализация)</text></g><line x1="540" y1="846" x2="540" y2="864" stroke="#222222" stroke-width="1.5" marker-end="url(#arrow)"/><g><rect x="430" y="866" rx="22" ry="22" width="220" height="50" stroke="#222222" fill="url(#scr)"/><text font-size="11" text-anchor="middle" x="540" y="887">Cycle Time MR</text><text font-size="11" text-anchor="middle" x="540" y="903">с декомпозицией по фазам</text></g><line x1="540" y1="916" x2="540" y2="934" stroke="#222222" stroke-width="1.5" marker-end="url(#arrow)"/><g><rect x="430" y="936" rx="22" ry="22" width="220" height="50" stroke="#222222" fill="url(#scr)"/><text font-size="11" text-anchor="middle" x="540" y="957">Bus Factor по модулям</text><text font-size="11" text-anchor="middle" x="540" y="973">и сигналы аномалий</text></g><line x1="540" y1="986" x2="540" y2="1004" stroke="#222222" stroke-width="1.5" marker-end="url(#arrow)"/><g><rect x="430" y="1006" rx="22" ry="22" width="220" height="44" stroke="#222222" fill="url(#scr)"/><text font-size="12" text-anchor="middle" x="540" y="1032">Экспорт отчёта в CSV</text></g><g><rect x="800" y="615" width="240" height="36" stroke="#222222" stroke-width="1.4" fill="url(#role)"/><text font-weight="700" font-size="13" text-anchor="middle" x="920" y="640">Руководитель отдела</text><rect x="810" y="668" rx="22" ry="22" width="220" height="50" stroke="#222222" fill="url(#scr)"/><text font-size="11" text-anchor="middle" x="920" y="689">Кросс-командный</text><text font-size="11" text-anchor="middle" x="920" y="705">дашборд DORA</text></g><line x1="920" y1="718" x2="920" y2="736" stroke="#222222" stroke-width="1.5" marker-end="url(#arrow)"/><g><rect x="810" y="738" rx="22" ry="22" width="220" height="44" stroke="#222222" fill="url(#scr)"/><text font-size="12" text-anchor="middle" x="920" y="764">Выбор отчётного периода</text></g><line x1="920" y1="782" x2="920" y2="800" stroke="#222222" stroke-width="1.5" marker-end="url(#arrow)"/><g><rect x="810" y="802" rx="22" ry="22" width="220" height="50" stroke="#222222" fill="url(#scr)"/><text font-size="11" text-anchor="middle" x="920" y="823">Сравнение команд</text><text font-size="11" text-anchor="middle" x="920" y="839">по пяти метрикам DORA</text></g><line x1="920" y1="852" x2="920" y2="870" stroke="#222222" stroke-width="1.5" marker-end="url(#arrow)"/><g><rect x="810" y="872" rx="22" ry="22" width="220" height="50" stroke="#222222" fill="url(#scr)"/><text font-size="11" text-anchor="middle" x="920" y="893">Динамика метрик</text><text font-size="11" text-anchor="middle" x="920" y="909">во времени</text></g><line x1="920" y1="922" x2="920" y2="940" stroke="#222222" stroke-width="1.5" marker-end="url(#arrow)"/><g><rect x="810" y="942" rx="22" ry="22" width="220" height="50" stroke="#222222" fill="url(#scr)"/><text font-size="11" text-anchor="middle" x="920" y="963">Раскрытие формулы расчёта</text><text font-size="11" text-anchor="middle" x="920" y="979">и источников данных</text></g><line x1="920" y1="992" x2="920" y2="1010" stroke="#222222" stroke-width="1.5" marker-end="url(#arrow)"/><g><rect x="810" y="1012" rx="22" ry="22" width="220" height="44" stroke="#222222" fill="url(#scr)"/><text font-size="12" text-anchor="middle" x="920" y="1038">Экспорт отчёта в CSV</text></g><g><rect x="1180" y="615" width="240" height="36" stroke="#222222" stroke-width="1.4" fill="url(#role)"/><text font-weight="700" font-size="13" text-anchor="middle" x="1300" y="640">Администратор</text><rect x="1190" y="668" rx="22" ry="22" width="220" height="44" stroke="#222222" fill="url(#scr)"/><text font-size="12" text-anchor="middle" x="1300" y="694">Панель администрирования</text></g><line x1="1300" y1="712" x2="1300" y2="730" stroke="#222222" stroke-width="1.5" marker-end="url(#arrow)"/><g><rect x="1190" y="732" rx="22" ry="22" width="220" height="50" stroke="#222222" fill="url(#scr)"/><text font-size="11" text-anchor="middle" x="1300" y="753">Подключение проекта</text><text font-size="11" text-anchor="middle" x="1300" y="769">GitLab</text></g><line x1="1300" y1="782" x2="1300" y2="800" stroke="#222222" stroke-width="1.5" marker-end="url(#arrow)"/><g><rect x="1190" y="802" rx="22" ry="22" width="220" height="44" stroke="#222222" fill="url(#scr)"/><text font-size="12" text-anchor="middle" x="1300" y="828">Управление командами</text></g><line x1="1300" y1="846" x2="1300" y2="864" stroke="#222222" stroke-width="1.5" marker-end="url(#arrow)"/><g><rect x="1190" y="866" rx="22" ry="22" width="220" height="50" stroke="#222222" fill="url(#scr)"/><text font-size="11" text-anchor="middle" x="1300" y="887">Управление учётными</text><text font-size="11" text-anchor="middle" x="1300" y="903">записями и ролями</text></g><line x1="1300" y1="916" x2="1300" y2="934" stroke="#222222" stroke-width="1.5" marker-end="url(#arrow)"/><g><rect x="1190" y="936" rx="22" ry="22" width="220" height="44" stroke="#222222" fill="url(#scr)"/><text font-size="12" text-anchor="middle" x="1300" y="962">Просмотр журнала аудита</text></g><line x1="1300" y1="980" x2="1300" y2="1004" stroke="#222222" stroke-width="1.5" marker-end="url(#arrow)"/><g><rect x="1190" y="1006" rx="22" ry="22" width="220" height="44" stroke="#222222" fill="url(#scr)"/><text font-size="12" text-anchor="middle" x="1300" y="1032">Сохранение конфигурации</text></g><path d=" M 160 1044 C 160 1081.33 263.333 1103.33 470 1110 L 1030 1110 C 1236.67 1103.33 1340 1083.33 1340 1050" stroke="#222222" stroke-width="1.5" fill="none"/><line x1="160" y1="1044" x2="160" y2="1080" stroke="#222222" stroke-width="1.5"/><line x1="540" y1="1050" x2="540" y2="1112" stroke="#222222" stroke-width="1.5"/><line x1="920" y1="1056" x2="920" y2="1112" stroke="#222222" stroke-width="1.5"/><line x1="1300" y1="1050" x2="1300" y2="1080" stroke="#222222" stroke-width="1.5"/><rect x="600" y="1130" width="300" height="6" fill="#222222"/><line x1="750" y1="1136" x2="750" y2="1166" stroke="#222222" stroke-width="1.5" marker-end="url(#arrow)"/><g><rect x="620" y="1170" rx="22" ry="22" width="260" height="44" stroke="#222222" fill="url(#scr)"/><text font-size="12" text-anchor="middle" x="750" y="1196">Завершение сеанса (Logout)</text></g><line x1="750" y1="1214" x2="750" y2="1235" stroke="#222222" stroke-width="1.5" marker-end="url(#arrow)"/><circle cx="750" cy="1248" r="10" stroke="#222222" stroke-width="1.5" fill="none"/><circle cx="750" cy="1248" r="6" fill="#222222"/></svg>