<svg version="1.1" viewBox="60 75 1275 665" xmlns="http://www.w3.org/2000/svg" xmlns:xlink="http://www.w3.org/1999/xlink" font-family="arial,arial" font-size="13" overflow="hidden"><defs><linearGradient x1="0" y1="0" x2="0" y2="1" id="nodeShade"><stop offset="0" stop-color="#FFFFFF"/><stop offset="1" stop-color="#EEF2F7"/></linearGradient><linearGradient x1="0" y1="0" x2="0" y2="1" id="envShade"><stop offset="0" stop-color="#FBFCFE"/><stop offset="1" stop-color="#E6ECF2"/></linearGradient><marker refX="5" refY="5" markerWidth="6" markerHeight="6" markerUnits="strokeWidth" viewBox="0 0 10 10" id="assocEnd" overflow="hidden"><path d=" M 0 0 L 10 5 L 0 10" stroke="#222222" stroke-width="1.5" fill="none"/></marker></defs><g><path d=" M 80 110 L 120 90 L 380 90 L 340 110 Z" stroke="#222222" fill="#DBE3EC"/><path d=" M 340 110 L 380 90 L 380 260 L 340 280 Z" stroke="#222222" fill="#CFD7E0"/><rect x="80" y="110" width="260" height="170" stroke="#222222" stroke-width="1.5" fill="url(#nodeShade)"/><text font-style="italic" font-size="12" text-anchor="middle" x="210" y="135">«device»</text><text font-weight="700" font-size="14" text-anchor="middle" x="210" y="155"><tspan>:Устройство пользователя</tspan></text><text fill="#444444" font-size="11" text-anchor="middle" x="210" y="175">{OS = Windows / Linux / macOS / Android}</text><rect x="105" y="195" width="210" height="58" stroke="#222222" fill="url(#envShade)"/><text font-style="italic" font-size="11" text-anchor="middle" x="210" y="215">browser</text><text font-weight="700" font-size="12" text-anchor="middle" x="210" y="232">:Web Browser</text><text fill="#444444" font-size="10" text-anchor="middle" x="210" y="250">Yandex / Firefox / Chrome</text></g><g><path d=" M 500 110 L 540 90 L 800 90 L 760 110 Z" stroke="#222222" fill="#DBE3EC"/><path d=" M 760 110 L 800 90 L 800 280 L 760 300 Z" stroke="#222222" fill="#CFD7E0"/><rect x="500" y="110" width="260" height="190" stroke="#222222" stroke-width="1.5" fill="url(#nodeShade)"/><text font-style="italic" font-size="12" text-anchor="middle" x="630" y="135">«device, server»</text><text font-weight="700" font-size="14" text-anchor="middle" x="630" y="155">:Сервер веб-интерфейса</text><text fill="#444444" font-size="11" text-anchor="middle" x="630" y="175">{OS = Ubuntu Server 22.04 LTS}</text><rect x="525" y="195" width="210" height="58" stroke="#222222" fill="url(#envShade)"/><text font-style="italic" font-size="11" text-anchor="middle" x="630" y="215">execution environment</text><text font-weight="700" font-size="12" text-anchor="middle" x="630" y="232">:nginx</text></g><g><path d=" M 370 470 L 410 450 L 740 450 L 700 470 Z" stroke="#222222" fill="#DBE3EC"/><path d=" M 700 470 L 740 450 L 740 710 L 700 730 Z" stroke="#222222" fill="#CFD7E0"/><rect x="370" y="470" width="330" height="260" stroke="#222222" stroke-width="1.5" fill="url(#nodeShade)"/><text font-style="italic" font-size="12" text-anchor="middle" x="535" y="495">«device, server»</text><text font-weight="700" font-size="14" text-anchor="middle" x="535" y="515">:Сервер приложений</text><text fill="#444444" font-size="11" text-anchor="middle" x="535" y="535">{OS = Ubuntu Server 22.04 LTS}</text><rect x="395" y="555" width="280" height="165" stroke="#222222" fill="url(#envShade)"/><text font-style="italic" font-size="11" text-anchor="middle" x="535" y="575">execution environment</text><text font-weight="700" font-size="12" text-anchor="middle" x="535" y="592">:Node.js 22 LTS</text><rect x="415" y="605" width="240" height="45" stroke="#222222" fill="#FFFFFF"/><text font-style="italic" font-size="10" text-anchor="middle" x="535" y="623">execution environment</text><text font-weight="700" font-size="11" text-anchor="middle" x="535" y="639">:Express.js</text><rect x="415" y="665" width="240" height="45" stroke="#222222" fill="#FFFFFF"/><text font-style="italic" font-size="10" text-anchor="middle" x="535" y="683">execution environment</text><text font-weight="700" font-size="11" text-anchor="middle" x="535" y="699">:node-cron</text><line x1="535" y1="665" x2="535" y2="650" stroke="#222222" stroke-width="1" stroke-dasharray="2 2"/></g><g><path d=" M 930 470 L 970 450 L 1280 450 L 1240 470 Z" stroke="#222222" fill="#DBE3EC"/><path d=" M 1240 470 L 1280 450 L 1280 710 L 1240 730 Z" stroke="#222222" fill="#CFD7E0"/><rect x="930" y="470" width="310" height="260" stroke="#222222" stroke-width="1.5" fill="url(#nodeShade)"/><text font-style="italic" font-size="12" text-anchor="middle" x="1085" y="495">«device, server»</text><text font-weight="700" font-size="14" text-anchor="middle" x="1085" y="515">:Сервер базы данных</text><text fill="#444444" font-size="11" text-anchor="middle" x="1085" y="535">{OS = Ubuntu Server 22.04 LTS}</text><rect x="955" y="555" width="260" height="85" stroke="#222222" fill="url(#envShade)"/><text font-style="italic" font-size="11" text-anchor="middle" x="1085" y="575">database</text><text font-weight="700" font-size="12" text-anchor="middle" x="1085" y="592">:PostgreSQL 15</text></g><g><path d=" M 950 110 L 990 90 L 1320 90 L 1280 110 Z" stroke="#222222" stroke-dasharray="4 2" fill="#E8E2D6"/><path d=" M 1280 110 L 1320 90 L 1320 300 L 1280 320 Z" stroke="#222222" stroke-dasharray="4 2" fill="#DDD5C2"/><rect x="950" y="110" width="330" height="210" stroke="#222222" stroke-width="1.5" stroke-dasharray="4 2" fill="#FCF9F1"/><text font-style="italic" font-size="12" text-anchor="middle" x="1115" y="135">«device, external»</text><text font-weight="700" font-size="14" text-anchor="middle" x="1115" y="155">:GitLab Instance</text><text fill="#444444" font-size="11" text-anchor="middle" x="1115" y="175">{self-hosted | cloud}</text><rect x="975" y="195" width="280" height="58" stroke="#222222" fill="#FFFDF6"/><text font-style="italic" font-size="11" text-anchor="middle" x="1115" y="215">execution environment</text><text font-weight="700" font-size="12" text-anchor="middle" x="1115" y="232">:GitLab Application</text></g><line x1="380" y1="195" x2="500" y2="195" stroke="#222222" stroke-width="1.5"/><text font-style="italic" font-size="11" text-anchor="middle" x="440" y="187">«HTTPS»</text><text fill="#555555" font-size="10" text-anchor="middle" x="440" y="210">443/TCP</text><line x1="630" y1="300" x2="535" y2="470" stroke="#222222" stroke-width="1.5"/><text font-style="italic" font-size="11" x="555" y="385">«HTTP»</text><text fill="#555555" font-size="10" x="555" y="402">reverse-proxy /api</text><line x1="700" y1="640" x2="930" y2="640" stroke="#222222" stroke-width="1.5"/><text font-style="italic" font-size="11" text-anchor="middle" x="815" y="632">«SQL / TCP»</text><text fill="#555555" font-size="10" text-anchor="middle" x="815" y="655">PostgreSQL 5432</text><line x1="700" y1="490" x2="950" y2="320" stroke="#222222" stroke-width="1.5" stroke-dasharray="6 3"/><text font-style="italic" font-size="11" x="810" y="395">«HTTPS / REST»</text><text fill="#555555" font-size="10" x="810" y="412">Personal Access Token</text><line x1="535" y1="700" x2="535" y2="685" stroke="#222222" stroke-width="1" stroke-dasharray="2 2"/></svg>