<svg version="1.1" width="2292" height="2281" viewBox="0 0 2292 2281" preserveAspectRatio="none" xmlns="http://www.w3.org/2000/svg" xmlns:xlink="http://www.w3.org/1999/xlink" overflow="hidden"><defs></defs><g><g id="elem_Role"><rect x="1560.5" y="683.55" rx="2.5" ry="2.5" width="83" height="107.484" id="Role" stroke="#181818" stroke-width="0.5" fill="#F1F1F1"/><text fill="#000000" font-family="arial" font-size="14" x="1586.5" y="701.545">Role</text><line x1="1561.5" y1="709.847" x2="1642.5" y2="709.847" stroke="#181818" stroke-width="0.5"/><text fill="#000000" font-family="arial" font-size="14" x="1566.5" y="726.842">developer</text><text fill="#000000" font-family="arial" font-size="14" x="1566.5" y="743.139">team_lead</text><text fill="#000000" font-family="arial" font-size="14" x="1566.5" y="759.436">head</text><text fill="#000000" font-family="arial" font-size="14" x="1566.5" y="775.733">admin</text><line x1="1561.5" y1="783.034" x2="1642.5" y2="783.034" stroke="#181818" stroke-width="0.5"/></g><g id="elem_MRState"><rect x="1913.5" y="376.7" rx="2.5" ry="2.5" width="66" height="91.1875" id="MRState" stroke="#181818" stroke-width="0.5" fill="#F1F1F1"/><text fill="#000000" font-family="arial" font-size="14" x="1917.5" y="394.695">MRState</text><line x1="1914.5" y1="402.997" x2="1978.5" y2="402.997" stroke="#181818" stroke-width="0.5"/><text fill="#000000" font-family="arial" font-size="14" x="1919.5" y="419.992">opened</text><text fill="#000000" font-family="arial" font-size="14" x="1919.5" y="436.289">merged</text><text fill="#000000" font-family="arial" font-size="14" x="1919.5" y="452.586">closed</text><line x1="1914.5" y1="459.887" x2="1978.5" y2="459.887" stroke="#181818" stroke-width="0.5"/></g><g id="elem_ReviewState"><rect x="2134" y="1150.7" rx="2.5" ry="2.5" width="151" height="91.1875" id="ReviewState" stroke="#181818" stroke-width="0.5" fill="#F1F1F1"/><text fill="#000000" font-family="arial" font-size="14" x="2167" y="1168.7">ReviewState</text><line x1="2135" y1="1177" x2="2284" y2="1177" stroke="#181818" stroke-width="0.5"/><text fill="#000000" font-family="arial" font-size="14" x="2140" y="1193.99">commented</text><text fill="#000000" font-family="arial" font-size="14" x="2140" y="1210.29">approved</text><text fill="#000000" font-family="arial" font-size="14" x="2140" y="1226.59">requested_changes</text><line x1="2135" y1="1233.89" x2="2284" y2="1233.89" stroke="#181818" stroke-width="0.5"/></g><g id="elem_MetricType"><rect x="1861.5" y="1964.25" rx="2.5" ry="2.5" width="170" height="140.078" id="MetricType" stroke="#181818" stroke-width="0.5" fill="#F1F1F1"/><text fill="#000000" font-family="arial" font-size="14" x="1908.5" y="1982.25">MetricType</text><line x1="1862.5" y1="1990.55" x2="2030.5" y2="1990.55" stroke="#181818" stroke-width="0.5"/><text fill="#000000" font-family="arial" font-size="14" x="1867.5" y="2007.54">lead_time</text><text fill="#000000" font-family="arial" font-size="14" x="1867.5" y="2023.84">deployment_frequency</text><text fill="#000000" font-family="arial" font-size="14" x="1867.5" y="2040.14">change_failure_rate</text><text fill="#000000" font-family="arial" font-size="14" x="1867.5" y="2056.43">cycle_time_mr</text><text fill="#000000" font-family="arial" font-size="14" x="1867.5" y="2072.73">mr_size</text><text fill="#000000" font-family="arial" font-size="14" x="1867.5" y="2089.03">bus_factor</text><line x1="1862.5" y1="2096.33" x2="2030.5" y2="2096.33" stroke="#181818" stroke-width="0.5"/></g><g id="elem_EntityType"><rect x="1907.5" y="2142.7" rx="2.5" ry="2.5" width="78" height="91.1875" id="EntityType" stroke="#181818" stroke-width="0.5" fill="#F1F1F1"/><text fill="#000000" font-family="arial" font-size="14" x="1910.5" y="2160.7">EntityType</text><line x1="1908.5" y1="2169" x2="1984.5" y2="2169" stroke="#181818" stroke-width="0.5"/><text fill="#000000" font-family="arial" font-size="14" x="1913.5" y="2185.99">project</text><text fill="#000000" font-family="arial" font-size="14" x="1913.5" y="2202.29">team</text><text fill="#000000" font-family="arial" font-size="14" x="1913.5" y="2218.59">user</text><line x1="1908.5" y1="2225.89" x2="1984.5" y2="2225.89" stroke="#181818" stroke-width="0.5"/></g><g id="elem_User"><rect x="1028" y="650.96" rx="2.5" ry="2.5" width="311" height="172.672" id="User" stroke="#181818" stroke-width="0.5" fill="#F1F1F1"/><text fill="#000000" font-family="arial" font-size="14" x="1167.5" y="668.955">User</text><line x1="1029" y1="677.257" x2="1338" y2="677.257" stroke="#181818" stroke-width="0.5"/><text fill="#000000" font-family="arial" font-size="14" x="1034" y="694.252">-id : UUID</text><text fill="#000000" font-family="arial" font-size="14" x="1034" y="710.549">-username : String</text><text fill="#000000" font-family="arial" font-size="14" x="1034" y="726.846">-passwordHash : String</text><text fill="#000000" font-family="arial" font-size="14" x="1034" y="743.143">-gitlabUsername : String</text><text fill="#000000" font-family="arial" font-size="14" x="1034" y="759.439">-role : Role</text><text fill="#000000" font-family="arial" font-size="14" x="1034" y="775.736">-createdAt : DateTime</text><line x1="1029" y1="783.038" x2="1338" y2="783.038" stroke="#181818" stroke-width="0.5"/><text fill="#000000" font-family="arial" font-size="14" x="1034" y="800.033">+authenticate(password : String) : Boolean</text><text fill="#000000" font-family="arial" font-size="14" x="1034" y="816.33">+getRole() : Role</text></g><g id="elem_Team"><rect x="124" y="675.4" rx="2.5" ry="2.5" width="214" height="123.781" id="Team" stroke="#181818" stroke-width="0.5" fill="#F1F1F1"/><text fill="#000000" font-family="arial" font-size="14" x="211.5" y="693.395">Team</text><line x1="125" y1="701.697" x2="337" y2="701.697" stroke="#181818" stroke-width="0.5"/><text fill="#000000" font-family="arial" font-size="14" x="130" y="718.692">-id : UUID</text><text fill="#000000" font-family="arial" font-size="14" x="130" y="734.989">-name : String</text><text fill="#000000" font-family="arial" font-size="14" x="130" y="751.286">-createdAt : DateTime</text><line x1="125" y1="758.587" x2="337" y2="758.587" stroke="#181818" stroke-width="0.5"/><text fill="#000000" font-family="arial" font-size="14" x="130" y="775.583">+getMembers() : List&lt;User&gt;</text><text fill="#000000" font-family="arial" font-size="14" x="130" y="791.88">+getLead() : User</text></g><g id="elem_TeamMember"><rect x="663.5" y="774.01" rx="2.5" ry="2.5" width="153" height="72.5625" id="TeamMember" stroke="#181818" stroke-width="0.5" fill="#F1F1F1"/><text fill="#000000" font-family="arial" font-style="italic" font-size="12" x="679" y="790.149">«association class»</text><text fill="#000000" font-family="arial" font-size="14" x="692" y="805.974">TeamMember</text><line x1="664.5" y1="814.276" x2="815.5" y2="814.276" stroke="#181818" stroke-width="0.5"/><text fill="#000000" font-family="arial" font-size="14" x="669.5" y="831.271">-joinedAt : DateTime</text><line x1="664.5" y1="838.572" x2="815.5" y2="838.572" stroke="#181818" stroke-width="0.5"/></g><g id="elem_Project"><rect x="1085" y="167.66" rx="2.5" ry="2.5" width="197" height="205.266" id="Project" stroke="#181818" stroke-width="0.5" fill="#F1F1F1"/><text fill="#000000" font-family="arial" font-size="14" x="1159.5" y="185.655">Project</text><line x1="1086" y1="193.957" x2="1281" y2="193.957" stroke="#181818" stroke-width="0.5"/><text fill="#000000" font-family="arial" font-size="14" x="1091" y="210.952">-id : UUID</text><text fill="#000000" font-family="arial" font-size="14" x="1091" y="227.249">-gitlabProjectId : Integer</text><text fill="#000000" font-family="arial" font-size="14" x="1091" y="243.546">-gitlabBaseUrl : String</text><text fill="#000000" font-family="arial" font-size="14" x="1091" y="259.843">-name : String</text><text fill="#000000" font-family="arial" font-size="14" x="1091" y="276.139">-encryptedToken : String</text><text fill="#000000" font-family="arial" font-size="14" x="1091" y="292.436">-releaseTagPattern : String</text><text fill="#000000" font-family="arial" font-size="14" x="1091" y="308.733">-hotfixLabel : String</text><text fill="#000000" font-family="arial" font-size="14" x="1091" y="325.03">-revertLabel : String</text><text fill="#000000" font-family="arial" font-size="14" x="1091" y="341.327">-createdAt : DateTime</text><line x1="1086" y1="348.629" x2="1281" y2="348.629" stroke="#181818" stroke-width="0.5"/><text fill="#000000" font-family="arial" font-size="14" x="1091" y="365.624">+decryptToken() : String</text></g><g id="elem_SyncStatus"><rect x="1467.5" y="109.55" rx="2.5" ry="2.5" width="269" height="107.484" id="SyncStatus" stroke="#181818" stroke-width="0.5" fill="#F1F1F1"/><text fill="#000000" font-family="arial" font-size="14" x="1563.5" y="127.545">SyncStatus</text><line x1="1468.5" y1="135.847" x2="1735.5" y2="135.847" stroke="#181818" stroke-width="0.5"/><text fill="#000000" font-family="arial" font-size="14" x="1473.5" y="152.842">-lastSyncAt : DateTime</text><text fill="#000000" font-family="arial" font-size="14" x="1473.5" y="169.139">-lastCommitSha : String</text><text fill="#000000" font-family="arial" font-size="14" x="1473.5" y="185.436">-lastMrIid : Integer</text><line x1="1468.5" y1="192.738" x2="1735.5" y2="192.738" stroke="#181818" stroke-width="0.5"/><text fill="#000000" font-family="arial" font-size="14" x="1473.5" y="209.733">+updateSyncPoint(commit, mr) : void</text></g><g id="elem_Commit"><rect x="1854" y="218.4" rx="2.5" ry="2.5" width="185" height="123.781" id="Commit" stroke="#181818" stroke-width="0.5" fill="#F1F1F1"/><text fill="#000000" font-family="arial" font-size="14" x="1920" y="236.395">Commit</text><line x1="1855" y1="244.697" x2="2038" y2="244.697" stroke="#181818" stroke-width="0.5"/><text fill="#000000" font-family="arial" font-size="14" x="1860" y="261.692">-id : UUID</text><text fill="#000000" font-family="arial" font-size="14" x="1860" y="277.989">-sha : String</text><text fill="#000000" font-family="arial" font-size="14" x="1860" y="294.286">-message : String</text><text fill="#000000" font-family="arial" font-size="14" x="1860" y="310.583">-committedAt : DateTime</text><text fill="#000000" font-family="arial" font-size="14" x="1860" y="326.88">-filesChanged : JSON</text><line x1="1855" y1="334.181" x2="2038" y2="334.181" stroke="#181818" stroke-width="0.5"/></g><g id="elem_MergeRequest"><rect x="1445" y="394.22" rx="2.5" ry="2.5" width="314" height="254.156" id="MergeRequest" stroke="#181818" stroke-width="0.5" fill="#F1F1F1"/><text fill="#000000" font-family="arial" font-size="14" x="1550.5" y="412.215">MergeRequest</text><line x1="1446" y1="420.517" x2="1758" y2="420.517" stroke="#181818" stroke-width="0.5"/><text fill="#000000" font-family="arial" font-size="14" x="1451" y="437.512">-id : UUID</text><text fill="#000000" font-family="arial" font-size="14" x="1451" y="453.809">-gitlabMrIid : Integer</text><text fill="#000000" font-family="arial" font-size="14" x="1451" y="470.106">-state : MRState</text><text fill="#000000" font-family="arial" font-size="14" x="1451" y="486.403">-createdAt : DateTime</text><text fill="#000000" font-family="arial" font-size="14" x="1451" y="502.7">-firstReviewAt : DateTime</text><text fill="#000000" font-family="arial" font-size="14" x="1451" y="518.996">-approvedAt : DateTime</text><text fill="#000000" font-family="arial" font-size="14" x="1451" y="535.293">-mergedAt : DateTime</text><text fill="#000000" font-family="arial" font-size="14" x="1451" y="551.59">-linesAdded : Integer</text><text fill="#000000" font-family="arial" font-size="14" x="1451" y="567.887">-linesRemoved : Integer</text><text fill="#000000" font-family="arial" font-size="14" x="1451" y="584.184">-hasHotfixLabel : Boolean</text><text fill="#000000" font-family="arial" font-size="14" x="1451" y="600.481">-hasRevertLabel : Boolean</text><line x1="1446" y1="607.783" x2="1758" y2="607.783" stroke="#181818" stroke-width="0.5"/><text fill="#000000" font-family="arial" font-size="14" x="1451" y="624.778">+getCycleTimePhases() : CycleTimePhases</text><text fill="#000000" font-family="arial" font-size="14" x="1451" y="641.074">+getSizeBucket() : SizeBucket</text></g><g id="elem_Review"><rect x="1864.5" y="1150.7" rx="2.5" ry="2.5" width="164" height="91.1875" id="Review" stroke="#181818" stroke-width="0.5" fill="#F1F1F1"/><text fill="#000000" font-family="arial" font-size="14" x="1922" y="1168.7">Review</text><line x1="1865.5" y1="1177" x2="2027.5" y2="1177" stroke="#181818" stroke-width="0.5"/><text fill="#000000" font-family="arial" font-size="14" x="1870.5" y="1193.99">-id : UUID</text><text fill="#000000" font-family="arial" font-size="14" x="1870.5" y="1210.29">-state : ReviewState</text><text fill="#000000" font-family="arial" font-size="14" x="1870.5" y="1226.59">-createdAt : DateTime</text><line x1="1865.5" y1="1233.89" x2="2027.5" y2="1233.89" stroke="#181818" stroke-width="0.5"/></g><g id="elem_Deployment"><rect x="1859" y="503.25" rx="2.5" ry="2.5" width="175" height="140.078" id="Deployment" stroke="#181818" stroke-width="0.5" fill="#F1F1F1"/><text fill="#000000" font-family="arial" font-size="14" x="1904.5" y="521.245">Deployment</text><line x1="1860" y1="529.547" x2="2033" y2="529.547" stroke="#181818" stroke-width="0.5"/><text fill="#000000" font-family="arial" font-size="14" x="1865" y="546.542">-id : UUID</text><text fill="#000000" font-family="arial" font-size="14" x="1865" y="562.839">-tag : String</text><text fill="#000000" font-family="arial" font-size="14" x="1865" y="579.136">-deployedAt : DateTime</text><text fill="#000000" font-family="arial" font-size="14" x="1865" y="595.433">-isFailed : Boolean</text><text fill="#000000" font-family="arial" font-size="14" x="1865" y="611.73">-isHotfix : Boolean</text><text fill="#000000" font-family="arial" font-size="14" x="1865" y="628.026">-isRevert : Boolean</text><line x1="1860" y1="635.328" x2="2033" y2="635.328" stroke="#181818" stroke-width="0.5"/></g><g id="elem_AuditLog"><rect x="1517" y="826.25" rx="2.5" ry="2.5" width="170" height="140.078" id="AuditLog" stroke="#181818" stroke-width="0.5" fill="#F1F1F1"/><text fill="#000000" font-family="arial" font-size="14" x="1572" y="844.245">AuditLog</text><line x1="1518" y1="852.547" x2="1686" y2="852.547" stroke="#181818" stroke-width="0.5"/><text fill="#000000" font-family="arial" font-size="14" x="1523" y="869.542">-id : UUID</text><text fill="#000000" font-family="arial" font-size="14" x="1523" y="885.839">-action : String</text><text fill="#000000" font-family="arial" font-size="14" x="1523" y="902.136">-entityType : String</text><text fill="#000000" font-family="arial" font-size="14" x="1523" y="918.433">-entityId : UUID</text><text fill="#000000" font-family="arial" font-size="14" x="1523" y="934.73">-timestamp : DateTime</text><text fill="#000000" font-family="arial" font-size="14" x="1523" y="951.026">-details : JSON</text><line x1="1518" y1="958.328" x2="1686" y2="958.328" stroke="#181818" stroke-width="0.5"/></g><g id="elem_MetricSnapshot"><rect x="1510.5" y="2101.96" rx="2.5" ry="2.5" width="183" height="172.672" id="MetricSnapshot" stroke="#181818" stroke-width="0.5" fill="#F1F1F1"/><text fill="#000000" font-family="arial" font-size="14" x="1548" y="2119.96">MetricSnapshot</text><line x1="1511.5" y1="2128.26" x2="1692.5" y2="2128.26" stroke="#181818" stroke-width="0.5"/><text fill="#000000" font-family="arial" font-size="14" x="1516.5" y="2145.25">-id : UUID</text><text fill="#000000" font-family="arial" font-size="14" x="1516.5" y="2161.55">-metricType : MetricType</text><text fill="#000000" font-family="arial" font-size="14" x="1516.5" y="2177.85">-entityType : EntityType</text><text fill="#000000" font-family="arial" font-size="14" x="1516.5" y="2194.14">-entityId : UUID</text><text fill="#000000" font-family="arial" font-size="14" x="1516.5" y="2210.44">-periodStart : DateTime</text><text fill="#000000" font-family="arial" font-size="14" x="1516.5" y="2226.74">-periodEnd : DateTime</text><text fill="#000000" font-family="arial" font-size="14" x="1516.5" y="2243.03">-value : JSON</text><text fill="#000000" font-family="arial" font-size="14" x="1516.5" y="2259.33">-calculatedAt : DateTime</text><line x1="1511.5" y1="2266.63" x2="1692.5" y2="2266.63" stroke="#181818" stroke-width="0.5"/></g><g id="elem_IDataSource"><rect x="516" y="335.4" rx="2.5" ry="2.5" width="448" height="123.781" id="IDataSource" stroke="#181818" stroke-width="0.5" fill="#F1F1F1"/><text fill="#000000" font-family="arial" font-style="italic" font-size="14" x="698" y="353.395">IDataSource</text><line x1="517" y1="361.697" x2="963" y2="361.697" stroke="#181818" stroke-width="0.5"/><line x1="517" y1="369.697" x2="963" y2="369.697" stroke="#181818" stroke-width="0.5"/><text fill="#000000" font-family="arial" font-size="14" x="522" y="386.692">+fetchProjects() : List&lt;Project&gt;</text><text fill="#000000" font-family="arial" font-size="14" x="522" y="402.989">+fetchCommits(projectId, since) : List&lt;Commit&gt;</text><text fill="#000000" font-family="arial" font-size="14" x="522" y="419.286">+fetchMergeRequests(projectId, since) : List&lt;MergeRequest&gt;</text><text fill="#000000" font-family="arial" font-size="14" x="522" y="435.583">+fetchReviews(mrId) : List&lt;Review&gt;</text><text fill="#000000" font-family="arial" font-size="14" x="522" y="451.88">+fetchTags(projectId) : List&lt;String&gt;</text></g><g id="elem_GitLabClient"><rect x="7" y="319.11" rx="2.5" ry="2.5" width="448" height="156.375" id="GitLabClient" stroke="#181818" stroke-width="0.5" fill="#F1F1F1"/><text fill="#000000" font-family="arial" font-size="14" x="190" y="337.105">GitLabClient</text><line x1="8" y1="345.407" x2="454" y2="345.407" stroke="#181818" stroke-width="0.5"/><text fill="#000000" font-family="arial" font-size="14" x="13" y="362.402">-baseUrl : String</text><text fill="#000000" font-family="arial" font-size="14" x="13" y="378.699">-token : String</text><line x1="8" y1="386.001" x2="454" y2="386.001" stroke="#181818" stroke-width="0.5"/><text fill="#000000" font-family="arial" font-size="14" x="13" y="402.996">+fetchProjects() : List&lt;Project&gt;</text><text fill="#000000" font-family="arial" font-size="14" x="13" y="419.293">+fetchCommits(projectId, since) : List&lt;Commit&gt;</text><text fill="#000000" font-family="arial" font-size="14" x="13" y="435.589">+fetchMergeRequests(projectId, since) : List&lt;MergeRequest&gt;</text><text fill="#000000" font-family="arial" font-size="14" x="13" y="451.886">+fetchReviews(mrId) : List&lt;Review&gt;</text><text fill="#000000" font-family="arial" font-size="14" x="13" y="468.183">+fetchTags(projectId) : List&lt;String&gt;</text></g><g id="elem_MetricCalculator"><rect x="1025" y="1520.85" rx="2.5" ry="2.5" width="317" height="74.8906" id="MetricCalculator" stroke="#181818" stroke-width="0.5" fill="#F1F1F1"/><text fill="#000000" font-family="arial" font-style="italic" font-size="14" x="1128.5" y="1538.85">MetricCalculator</text><line x1="1026" y1="1547.15" x2="1341" y2="1547.15" stroke="#181818" stroke-width="0.5"/><line x1="1026" y1="1555.15" x2="1341" y2="1555.15" stroke="#181818" stroke-width="0.5"/><text fill="#000000" font-family="arial" font-style="italic" font-size="14" x="1031" y="1572.14">+calculate(period : Period) : MetricSnapshot</text><text fill="#000000" font-family="arial" font-style="italic" font-size="14" x="1031" y="1588.44">+getMetricType() : MetricType</text></g><g id="elem_LeadTimeCalculator"><rect x="1472" y="1355.85" rx="2.5" ry="2.5" width="260" height="74.8906" id="LeadTimeCalculator" stroke="#181818" stroke-width="0.5" fill="#F1F1F1"/><text fill="#000000" font-family="arial" font-size="14" x="1534.5" y="1373.85">LeadTimeCalculator</text><line x1="1473" y1="1382.15" x2="1731" y2="1382.15" stroke="#181818" stroke-width="0.5"/><line x1="1473" y1="1390.15" x2="1731" y2="1390.15" stroke="#181818" stroke-width="0.5"/><text fill="#000000" font-family="arial" font-size="14" x="1478" y="1407.14">+calculate(period) : MetricSnapshot</text><text fill="#000000" font-family="arial" font-size="14" x="1478" y="1423.44">+getMetricType() : MetricType</text></g><g id="elem_DeploymentFrequencyCalculator"><rect x="1472" y="1465.85" rx="2.5" ry="2.5" width="260" height="74.8906" id="DeploymentFrequencyCalculator" stroke="#181818" stroke-width="0.5" fill="#F1F1F1"/><text fill="#000000" font-family="arial" font-size="14" x="1489.5" y="1483.85">DeploymentFrequencyCalculator</text><line x1="1473" y1="1492.15" x2="1731" y2="1492.15" stroke="#181818" stroke-width="0.5"/><line x1="1473" y1="1500.15" x2="1731" y2="1500.15" stroke="#181818" stroke-width="0.5"/><text fill="#000000" font-family="arial" font-size="14" x="1478" y="1517.14">+calculate(period) : MetricSnapshot</text><text fill="#000000" font-family="arial" font-size="14" x="1478" y="1533.44">+getMetricType() : MetricType</text></g><g id="elem_ChangeFailureRateCalculator"><rect x="1472" y="1575.85" rx="2.5" ry="2.5" width="260" height="74.8906" id="ChangeFailureRateCalculator" stroke="#181818" stroke-width="0.5" fill="#F1F1F1"/><text fill="#000000" font-family="arial" font-size="14" x="1502.5" y="1593.85">ChangeFailureRateCalculator</text><line x1="1473" y1="1602.15" x2="1731" y2="1602.15" stroke="#181818" stroke-width="0.5"/><line x1="1473" y1="1610.15" x2="1731" y2="1610.15" stroke="#181818" stroke-width="0.5"/><text fill="#000000" font-family="arial" font-size="14" x="1478" y="1627.14">+calculate(period) : MetricSnapshot</text><text fill="#000000" font-family="arial" font-size="14" x="1478" y="1643.44">+getMetricType() : MetricType</text></g><g id="elem_CycleTimeMRCalculator"><rect x="1472" y="1685.85" rx="2.5" ry="2.5" width="260" height="74.8906" id="CycleTimeMRCalculator" stroke="#181818" stroke-width="0.5" fill="#F1F1F1"/><text fill="#000000" font-family="arial" font-size="14" x="1521.5" y="1703.85">CycleTimeMRCalculator</text><line x1="1473" y1="1712.15" x2="1731" y2="1712.15" stroke="#181818" stroke-width="0.5"/><line x1="1473" y1="1720.15" x2="1731" y2="1720.15" stroke="#181818" stroke-width="0.5"/><text fill="#000000" font-family="arial" font-size="14" x="1478" y="1737.14">+calculate(period) : MetricSnapshot</text><text fill="#000000" font-family="arial" font-size="14" x="1478" y="1753.44">+getMetricType() : MetricType</text></g><g id="elem_MRSizeCalculator"><rect x="1472" y="1795.85" rx="2.5" ry="2.5" width="260" height="74.8906" id="MRSizeCalculator" stroke="#181818" stroke-width="0.5" fill="#F1F1F1"/><text fill="#000000" font-family="arial" font-size="14" x="1542.5" y="1813.85">MRSizeCalculator</text><line x1="1473" y1="1822.15" x2="1731" y2="1822.15" stroke="#181818" stroke-width="0.5"/><line x1="1473" y1="1830.15" x2="1731" y2="1830.15" stroke="#181818" stroke-width="0.5"/><text fill="#000000" font-family="arial" font-size="14" x="1478" y="1847.14">+calculate(period) : MetricSnapshot</text><text fill="#000000" font-family="arial" font-size="14" x="1478" y="1863.44">+getMetricType() : MetricType</text></g><g id="elem_BusFactorCalculator"><rect x="1472" y="1905.85" rx="2.5" ry="2.5" width="260" height="74.8906" id="BusFactorCalculator" stroke="#181818" stroke-width="0.5" fill="#F1F1F1"/><text fill="#000000" font-family="arial" font-size="14" x="1533" y="1923.85">BusFactorCalculator</text><line x1="1473" y1="1932.15" x2="1731" y2="1932.15" stroke="#181818" stroke-width="0.5"/><line x1="1473" y1="1940.15" x2="1731" y2="1940.15" stroke="#181818" stroke-width="0.5"/><text fill="#000000" font-family="arial" font-size="14" x="1478" y="1957.14">+calculate(period) : MetricSnapshot</text><text fill="#000000" font-family="arial" font-size="14" x="1478" y="1973.44">+getMetricType() : MetricType</text></g><ellipse cx="740" cy="737.29" rx="2" ry="2" stroke="#181818" stroke-width="1" fill="#181818"/><g id="link_Team_apoint28"><path d=" M 350.28 737.29 C 493.15 737.29 719.47 737.29 737.87 737.29" id="Team-backto-apoint28" stroke="#181818" stroke-width="1" fill="none"/><path d=" M 338.28 737.29 L 344.28 741.29 L 350.28 737.29 L 344.28 733.29 L 338.28 737.29 Z" stroke="#181818" stroke-width="1" fill="none"/></g><g id="link_apoint28_User"><path d=" M 742.27 737.29 C 757.49 737.29 900.97 737.29 1021.58 737.29" id="apoint28-to-User" stroke="#181818" stroke-width="1" fill="none"/><path d=" M 1027.58 737.29 L 1018.58 733.29 L 1022.58 737.29 L 1018.58 741.29 L 1027.58 737.29 Z" stroke="#181818" stroke-width="1" fill="#181818"/><text fill="#000000" font-family="arial" font-size="13" x="991.88" y="749.699">user</text></g><g id="link_apoint28_TeamMember"><path d=" M 740 739.58 C 740 750.98 740 762.39 740 773.79" id="apoint28-TeamMember" stroke="#181818" stroke-width="1" stroke-dasharray="7 7" fill="none"/></g><g id="link_Project_SyncStatus"><path d=" M 1294.03 242.154 C 1349.1 228.004 1401.21 214.623 1461.26 199.193" id="Project-SyncStatus" stroke="#181818" stroke-width="1" fill="none"/><path d=" M 1282.41 245.14 L 1289.22 247.521 L 1294.03 242.154 L 1287.23 239.773 L 1282.41 245.14 Z" stroke="#181818" stroke-width="1" fill="#181818"/><path d=" M 1467.07 197.7 L 1457.36 196.066 L 1462.23 198.944 L 1459.35 203.814 L 1467.07 197.7 Z" stroke="#181818" stroke-width="1" fill="#181818"/><text fill="#000000" font-family="arial" font-size="13" x="1290.18" y="256.19">syncStatus</text><text fill="#000000" font-family="arial" font-size="13" x="1415.47" y="211.8">project</text></g><g id="link_Project_Commit"><path d=" M 1292 175.271 C 1337.94 139.911 1385.99 110.53 1445 92.29 C 1578.33 51.09 1630.17 38.63 1759 92.29 C 1819.9 117.66 1867.53 168.861 1900.79 213.181" id="Project-Commit" stroke="#181818" stroke-width="1" fill="none"/><path d=" M 1282.49 182.59 L 1289.68 182.1 L 1292 175.271 L 1284.8 175.761 L 1282.49 182.59 Z" stroke="#181818" stroke-width="1" fill="none"/><path d=" M 1904.39 217.98 L 1902.19 208.381 L 1901.39 213.981 L 1895.79 213.182 L 1904.39 217.98 Z" stroke="#181818" stroke-width="1" fill="#181818"/><text fill="#000000" font-family="arial" font-size="13" x="1853.38" y="207.419">project</text></g><g id="link_Project_MergeRequest"><path d=" M 1292.69 335.494 C 1341.03 364.624 1385.09 391.183 1439.52 423.983" id="Project-MergeRequest" stroke="#181818" stroke-width="1" fill="none"/><path d=" M 1282.41 329.3 L 1285.48 335.823 L 1292.69 335.494 L 1289.61 328.971 L 1282.41 329.3 Z" stroke="#181818" stroke-width="1" fill="none"/><path d=" M 1444.66 427.08 L 1439.02 419.009 L 1440.38 424.499 L 1434.89 425.861 L 1444.66 427.08 Z" stroke="#181818" stroke-width="1" fill="#181818"/><text fill="#000000" font-family="arial" font-size="13" x="1393.09" y="435.491">project</text></g><g id="link_Project_Deployment"><path d=" M 1294.32 260.269 C 1419.51 253.779 1624.26 262.52 1759 376.29 C 1788.65 401.33 1765.7 427.26 1789 458.29 C 1807.82 483.37 1828.74 501.939 1853.96 519.829" id="Project-Deployment" stroke="#181818" stroke-width="1" fill="none"/><path d=" M 1282.34 260.89 L 1288.54 264.574 L 1294.32 260.269 L 1288.12 256.585 L 1282.34 260.89 Z" stroke="#181818" stroke-width="1" fill="none"/><path d=" M 1858.85 523.3 L 1853.82 514.83 L 1854.77 520.407 L 1849.19 521.355 L 1858.85 523.3 Z" stroke="#181818" stroke-width="1" fill="#181818"/><text fill="#000000" font-family="arial" font-size="13" x="1807.14" y="532.384">project</text></g><g id="link_MergeRequest_Review"><path d=" M 1753.61 657.979 C 1758.1 663.829 1755.05 660.26 1759 666.29 C 1864.33 827.02 1916.82 1048.35 1935.96 1144.55" id="MergeRequest-Review" stroke="#181818" stroke-width="1" fill="none"/><path d=" M 1746.3 648.46 L 1746.78 655.655 L 1753.61 657.979 L 1753.13 650.784 L 1746.3 648.46 Z" stroke="#181818" stroke-width="1" fill="#181818"/><path d=" M 1937.13 1150.43 L 1939.3 1140.82 L 1936.15 1145.53 L 1931.45 1142.38 L 1937.13 1150.43 Z" stroke="#181818" stroke-width="1" fill="#181818"/><text fill="#000000" font-family="arial" font-size="13" x="1713.49" y="668.316">review</text><text fill="#000000" font-family="arial" font-size="13" x="1834.85" y="1139.67">mergeRequest</text></g><g id="link_User_Commit"><path d=" M 1223.13 650.72 C 1265.28 566.78 1340.89 442.67 1445 376.29 C 1570.52 296.26 1741.24 280.06 1847.64 278.29" id="User-to-Commit" stroke="#181818" stroke-width="1" fill="none"/><path d=" M 1853.64 278.19 L 1844.57 274.34 L 1848.64 278.273 L 1844.71 282.339 L 1853.64 278.19 Z" stroke="#181818" stroke-width="1" fill="#181818"/><text fill="#000000" font-family="arial" font-size="13" x="1803.99" y="290.624">author</text></g><g id="link_User_MergeRequest"><path d=" M 1339.29 657.02 C 1373.66 639.2 1404.77 623.063 1439.2 605.203" id="User-to-MergeRequest" stroke="#181818" stroke-width="1" fill="none"/><path d=" M 1444.53 602.44 L 1434.7 603.034 L 1440.09 604.742 L 1438.38 610.135 L 1444.53 602.44 Z" stroke="#181818" stroke-width="1" fill="#181818"/><text fill="#000000" font-family="arial" font-size="13" x="1395" y="618.249">author</text></g><g id="link_User_Review"><path d=" M 1260.76 823.87 C 1309.57 875.45 1376.44 939.4 1445 984.29 C 1581.38 1073.6 1755.9 1137.07 1858.7 1170.11" id="User-to-Review" stroke="#181818" stroke-width="1" fill="none"/><path d=" M 1864.41 1171.95 L 1857.07 1165.39 L 1859.65 1170.42 L 1854.62 1173 L 1864.41 1171.95 Z" stroke="#181818" stroke-width="1" fill="#181818"/><text fill="#000000" font-family="arial" font-size="13" x="1803.44" y="1182.78">reviewer</text></g><g id="link_MergeRequest_Commit"><path d=" M 1769.28 404.293 C 1802.77 380.724 1822.3 366.983 1852.14 345.983" id="MergeRequest-Commit" stroke="#181818" stroke-width="1" fill="none"/><path d=" M 1759.47 411.2 L 1766.68 411.018 L 1769.28 404.293 L 1762.07 404.476 L 1759.47 411.2 Z" stroke="#181818" stroke-width="1" fill="none"/><path d=" M 1857.05 342.53 L 1847.39 344.439 L 1852.96 345.408 L 1851.99 350.981 L 1857.05 342.53 Z" stroke="#181818" stroke-width="1" fill="#181818"/><text fill="#000000" font-family="arial" font-size="13" x="1767.15" y="418.941">commit</text><text fill="#000000" font-family="arial" font-size="13" x="1752.18" y="360.159">mergeRequest</text></g><g id="link_MergeRequest_Deployment"><path d=" M 1765.4 545.95 C 1799.6 551.14 1816.8 553.747 1847.07 558.347" id="MergeRequest-Deployment" stroke="#181818" stroke-width="1" fill="none"/><path d=" M 1759.47 545.05 L 1767.77 550.355 L 1764.41 545.8 L 1768.97 542.446 L 1759.47 545.05 Z" stroke="#181818" stroke-width="1" fill="#181818"/><path d=" M 1858.93 560.15 L 1853.6 555.294 L 1847.07 558.347 L 1852.4 563.203 L 1858.93 560.15 Z" stroke="#181818" stroke-width="1" fill="none"/><text fill="#000000" font-family="arial" font-size="13" x="1767.11" y="558.34">deployment</text><text fill="#000000" font-family="arial" font-size="13" x="1757.1" y="572.337">mergeRequest</text></g><g id="link_User_AuditLog"><path d=" M 1339.29 796.39 C 1399.34 819.31 1460.14 842.52 1511.03 861.95" id="User-to-AuditLog" stroke="#181818" stroke-width="1" fill="none"/><path d=" M 1516.64 864.09 L 1509.66 857.143 L 1511.97 862.307 L 1506.81 864.617 L 1516.64 864.09 Z" stroke="#181818" stroke-width="1" fill="#181818"/><text fill="#000000" font-family="arial" font-size="13" x="1467.16" y="874.425">author</text></g><g id="link_GitLabClient_IDataSource"><path d=" M 455.48 397.29 C 475.53 397.29 477.82 397.29 497.86 397.29" id="GitLabClient-to-IDataSource" stroke="#181818" stroke-width="1" stroke-dasharray="7 7" fill="none"/><path d=" M 515.86 397.29 L 497.86 391.29 L 497.86 403.29 L 515.86 397.29 Z" stroke="#181818" stroke-width="1" fill="none"/></g><g id="link_MetricCalculator_LeadTimeCalculator"><path d=" M 1287.02 1513.28 C 1337.54 1491.43 1386.28 1471.02 1445 1448.29 C 1459.73 1442.59 1475.33 1436.8 1490.75 1431.23" id="MetricCalculator-backto-LeadTimeCalculator" stroke="#181818" stroke-width="1" fill="none"/><path d=" M 1270.5 1520.43 L 1289.4 1518.79 L 1284.64 1507.78 L 1270.5 1520.43 Z" stroke="#181818" stroke-width="1" fill="none"/></g><g id="link_MetricCalculator_DeploymentFrequencyCalculator"><path d=" M 1360.11 1535.1 C 1402.82 1529.46 1430.69 1525.78 1471.64 1520.38" id="MetricCalculator-backto-DeploymentFrequencyCalculator" stroke="#181818" stroke-width="1" fill="none"/><path d=" M 1342.26 1537.46 L 1360.89 1541.05 L 1359.32 1529.16 L 1342.26 1537.46 Z" stroke="#181818" stroke-width="1" fill="none"/></g><g id="link_MetricCalculator_ChangeFailureRateCalculator"><path d=" M 1360.11 1581.49 C 1402.82 1587.13 1430.69 1590.8 1471.64 1596.21" id="MetricCalculator-backto-ChangeFailureRateCalculator" stroke="#181818" stroke-width="1" fill="none"/><path d=" M 1342.26 1579.13 L 1359.32 1587.43 L 1360.89 1575.54 L 1342.26 1579.13 Z" stroke="#181818" stroke-width="1" fill="none"/></g><g id="link_MetricCalculator_CycleTimeMRCalculator"><path d=" M 1287.02 1603.31 C 1337.54 1625.16 1386.28 1645.57 1445 1668.29 C 1459.73 1673.99 1475.33 1679.78 1490.75 1685.36" id="MetricCalculator-backto-CycleTimeMRCalculator" stroke="#181818" stroke-width="1" fill="none"/><path d=" M 1270.5 1596.16 L 1284.64 1608.81 L 1289.4 1597.8 L 1270.5 1596.16 Z" stroke="#181818" stroke-width="1" fill="none"/></g><g id="link_MetricCalculator_MRSizeCalculator"><path d=" M 1233.1 1609.03 C 1280.54 1657.16 1355.88 1727.25 1445 1778.29 C 1455.84 1784.5 1467.5 1790.19 1479.39 1795.35" id="MetricCalculator-backto-MRSizeCalculator" stroke="#181818" stroke-width="1" fill="none"/><path d=" M 1220.46 1596.21 L 1228.82 1613.24 L 1237.37 1604.82 L 1220.46 1596.21 Z" stroke="#181818" stroke-width="1" fill="none"/></g><g id="link_MetricCalculator_BusFactorCalculator"><path d=" M 1213.53 1611.87 C 1251.68 1679.87 1331.89 1807.42 1445 1888.29 C 1453.88 1894.64 1463.56 1900.32 1473.6 1905.38" id="MetricCalculator-backto-BusFactorCalculator" stroke="#181818" stroke-width="1" fill="none"/><path d=" M 1204.72 1596.17 L 1208.29 1614.8 L 1218.76 1608.93 L 1204.72 1596.17 Z" stroke="#181818" stroke-width="1" fill="none"/></g><g id="link_MetricCalculator_Commit"><path d=" M 1202.47 1520.52 C 1239.39 1445.98 1330.04 1277.81 1445 1169.29 C 1562.79 1058.11 1668.26 1118.47 1759 984.29 C 1798.35 926.11 1820.03 420.78 1854 359.29 C 1857.2 353.51 1857.26 352.652 1861.46 347.353" id="MetricCalculator-to-Commit" stroke="#181818" stroke-width="1" stroke-dasharray="7 7" fill="none"/><path d=" M 1865.19 342.65 L 1856.47 347.219 L 1862.08 346.569 L 1862.74 352.188 L 1865.19 342.65 Z" stroke="#181818" stroke-width="1" fill="#181818"/></g><g id="link_MetricCalculator_MergeRequest"><path d=" M 1194.96 1520.39 C 1240.64 1355.2 1421.34 704.63 1445 666.29 C 1448.69 660.32 1449.14 659.264 1453.39 653.484" id="MetricCalculator-to-MergeRequest" stroke="#181818" stroke-width="1" stroke-dasharray="7 7" fill="none"/><path d=" M 1456.94 648.65 L 1448.39 653.531 L 1453.98 652.678 L 1454.83 658.27 L 1456.94 648.65 Z" stroke="#181818" stroke-width="1" fill="#181818"/></g><g id="link_MetricCalculator_Review"><path d=" M 1217.5 1520.67 C 1263.37 1470.87 1351.4 1384.05 1445 1338.29 C 1599.67 1262.69 1661.7 1315.7 1824 1258.29 C 1837.28 1253.6 1845.54 1250.3 1858.7 1244.07" id="MetricCalculator-to-Review" stroke="#181818" stroke-width="1" stroke-dasharray="7 7" fill="none"/><path d=" M 1864.12 1241.5 L 1854.27 1241.74 L 1859.6 1243.64 L 1857.7 1248.97 L 1864.12 1241.5 Z" stroke="#181818" stroke-width="1" fill="#181818"/></g><g id="link_MetricCalculator_Deployment"><path d=" M 1213.91 1520.69 C 1249.41 1476.22 1311.87 1400.83 1372 1342.29 C 1546.19 1172.73 1681.86 1231.5 1824 1034.29 C 1909.78 915.28 1934.56 746.052 1941.97 649.522" id="MetricCalculator-to-Deployment" stroke="#181818" stroke-width="1" stroke-dasharray="7 7" fill="none"/><path d=" M 1942.43 643.54 L 1937.75 652.207 L 1942.05 648.525 L 1945.73 652.82 L 1942.43 643.54 Z" stroke="#181818" stroke-width="1" fill="#181818"/></g><g id="link_MetricCalculator_MetricSnapshot"><path d=" M 1188.53 1596 C 1200.26 1688.63 1242.25 1930.35 1372 2075.29 C 1408.59 2116.17 1457.71 2141.8 1504.49 2159.58" id="MetricCalculator-to-MetricSnapshot" stroke="#181818" stroke-width="1" stroke-dasharray="7 7" fill="none"/><path d=" M 1510.1 2161.71 L 1503.11 2154.77 L 1505.43 2159.93 L 1500.27 2162.25 L 1510.1 2161.71 Z" stroke="#181818" stroke-width="1" fill="#181818"/><text fill="#000000" font-family="arial" font-size="13" x="1373" y="2071.36">create</text></g><g id="link_IDataSource_Project"><path d=" M 957.87 334.91 C 1002.36 322.11 1041.28 310.919 1078.96 300.079" id="IDataSource-to-Project" stroke="#181818" stroke-width="1" stroke-dasharray="7 7" fill="none"/><path d=" M 1084.73 298.42 L 1074.97 297.064 L 1079.92 299.802 L 1077.19 304.752 L 1084.73 298.42 Z" stroke="#181818" stroke-width="1" fill="#181818"/></g><g id="link_IDataSource_Commit"><path d=" M 795.7 335.1 C 848.79 278.58 934.44 197.1 1025 150.29 C 1195.65 62.09 1254.27 71.12 1445 48.29 C 1583.57 31.71 1626.01 6 1759 48.29 C 1838.04 73.43 1888.68 152.832 1917.4 212.612" id="IDataSource-to-Commit" stroke="#181818" stroke-width="1" stroke-dasharray="7 7" fill="none"/><path d=" M 1920 218.02 L 1919.71 208.176 L 1917.83 213.513 L 1912.5 211.64 L 1920 218.02 Z" stroke="#181818" stroke-width="1" fill="#181818"/></g><g id="link_IDataSource_MergeRequest"><path d=" M 964.43 429.51 C 1115.23 451.25 1304.54 478.554 1438.83 497.914" id="IDataSource-to-MergeRequest" stroke="#181818" stroke-width="1" stroke-dasharray="7 7" fill="none"/><path d=" M 1444.77 498.77 L 1436.43 493.527 L 1439.82 498.056 L 1435.29 501.445 L 1444.77 498.77 Z" stroke="#181818" stroke-width="1" fill="#181818"/></g><g id="link_IDataSource_Review"><path d=" M 788.56 459.47 C 835.84 522.62 909.04 624.12 964 717.29 C 995.2 770.2 985.33 794.41 1025 841.29 C 1173.52 1016.8 1230.19 1061.35 1445 1143.29 C 1585.22 1196.78 1756.57 1202.49 1858.11 1200.36" id="IDataSource-to-Review" stroke="#181818" stroke-width="1" stroke-dasharray="7 7" fill="none"/><path d=" M 1864.11 1200.23 L 1855.03 1196.42 L 1859.11 1200.33 L 1855.2 1204.42 L 1864.11 1200.23 Z" stroke="#181818" stroke-width="1" fill="#181818"/></g><g id="link_User_Role"><path d=" M 1339.29 737.29 C 1418.66 737.29 1503.14 737.29 1554.23 737.29" id="User-to-Role" stroke="#181818" stroke-width="1" stroke-dasharray="7 7" fill="none"/><path d=" M 1560.23 737.29 L 1551.23 733.29 L 1555.23 737.29 L 1551.23 741.29 L 1560.23 737.29 Z" stroke="#181818" stroke-width="1" fill="#181818"/><text fill="#000000" font-family="arial" font-size="13" x="1381.5" y="733.357">role</text></g><g id="link_MergeRequest_MRState"><path d=" M 1759.47 476.07 C 1817.29 459.35 1871.61 443.657 1907.33 433.327" id="MergeRequest-to-MRState" stroke="#181818" stroke-width="1" stroke-dasharray="7 7" fill="none"/><path d=" M 1913.09 431.66 L 1903.33 430.318 L 1908.29 433.049 L 1905.56 438.003 L 1913.09 431.66 Z" stroke="#181818" stroke-width="1" fill="#181818"/><text fill="#000000" font-family="arial" font-size="13" x="1790" y="456.087">state</text></g><g id="link_Review_ReviewState"><path d=" M 2028.65 1196.29 C 2062.17 1196.29 2094.79 1196.29 2127.62 1196.29" id="Review-to-ReviewState" stroke="#181818" stroke-width="1" stroke-dasharray="7 7" fill="none"/><path d=" M 2133.62 1196.29 L 2124.62 1192.29 L 2128.62 1196.29 L 2124.62 1200.29 L 2133.62 1196.29 Z" stroke="#181818" stroke-width="1" fill="#181818"/><text fill="#000000" font-family="arial" font-size="13" x="2070" y="1192.36">state</text></g><g id="link_MetricSnapshot_MetricType"><path d=" M 1693.88 2147.43 C 1745.81 2124.08 1805.01 2097.46 1855.78 2074.63" id="MetricSnapshot-to-MetricType" stroke="#181818" stroke-width="1" stroke-dasharray="7 7" fill="none"/><path d=" M 1861.25 2072.17 L 1851.4 2072.21 L 1856.69 2074.22 L 1854.68 2079.51 L 1861.25 2072.17 Z" stroke="#181818" stroke-width="1" fill="#181818"/><text fill="#000000" font-family="arial" font-size="13" x="1792.5" y="2089.04">type</text></g><g id="link_MetricCalculator_MetricType"><path d=" M 1192.83 1595.91 C 1215.22 1686.98 1286.11 1918.9 1445 2015.29 C 1573.24 2093.1 1750.02 2075.81 1855.53 2055.51" id="MetricCalculator-to-MetricType" stroke="#181818" stroke-width="1" stroke-dasharray="7 7" fill="none"/><path d=" M 1861.42 2054.38 L 1851.83 2052.15 L 1856.51 2055.32 L 1853.34 2060.01 L 1861.42 2054.38 Z" stroke="#181818" stroke-width="1" fill="#181818"/><text fill="#000000" font-family="arial" font-size="13" x="1588" y="2011.36">type</text></g><g id="link_MetricSnapshot_EntityType"><path d=" M 1693.88 2188.29 C 1763.45 2188.29 1849.88 2188.29 1901.14 2188.29" id="MetricSnapshot-to-EntityType" stroke="#181818" stroke-width="1" stroke-dasharray="7 7" fill="none"/><path d=" M 1907.14 2188.29 L 1898.14 2184.29 L 1902.14 2188.29 L 1898.14 2192.29 L 1907.14 2188.29 Z" stroke="#181818" stroke-width="1" fill="#181818"/><text fill="#000000" font-family="arial" font-size="13" x="1792.5" y="2184.36">type</text></g></g></svg>